<svg xmlns="http://www.w3.org/2000/svg" viewBox="0 0 640 420" role="img" aria-labelledby="title desc">
  <title id="title">Rye &amp; Wheat Bread</title>
  <desc id="desc">Neutral vector illustration of Rye &amp; Wheat Bread for the Retail AI Showcase demo catalog.</desc>
  <rect width="640" height="420" rx="34" fill="#F4FBF7"/>
  <circle cx="76" cy="72" r="30" fill="#DDF5E8"/>
  <circle cx="566" cy="86" r="18" fill="#FFF0B8"/>
  <path d="M48 344C126 300 214 330 294 350C382 372 475 372 592 326V420H48Z" fill="#E7F6EF"/>
  <ellipse cx="320" cy="345" rx="205" ry="25" fill="#16324F" opacity=".10"/>
  <circle cx="590" cy="350" r="9" fill="#26A269" opacity=".75"/>
  <path d="M160 294c0-91 78-146 186-146 97 0 161 45 171 124 6 48-29 79-80 79H235c-45 0-75-20-75-57Z" fill="#A86837" stroke="#6F4025" stroke-width="6"/>
  <path d="M205 206c38-30 82-42 132-42M190 253c67-33 149-36 232-9" fill="none" stroke="#D79B5A" stroke-width="10" stroke-linecap="round"/>
  <path d="M270 175c-12 26-13 49-1 71M350 164c-10 26-10 48 2 70M428 181c-8 22-6 42 5 59" fill="none" stroke="#F0C47B" stroke-width="8" stroke-linecap="round"/>
  <path d="M430 276c54-14 101 3 119 44-12 34-48 49-91 38-31-9-43-42-28-82Z" fill="#E2B977" stroke="#87512D" stroke-width="5"/>
  <path d="M460 294c24-7 47-1 62 15" stroke="#F4D49D" stroke-width="7" stroke-linecap="round"/>
</svg>
